<?xml version="1.0" encoding="UTF-8"?>
<svg width="32px" height="32px" viewBox="0 0 32 32" version="1.1" xmlns="http://www.w3.org/2000/svg" xmlns:xlink="http://www.w3.org/1999/xlink">
    <title>3</title>
    <defs>
        <circle id="path-1" cx="16" cy="16" r="16"></circle>
        <circle id="path-3" cx="16" cy="16" r="16"></circle>
        <circle id="path-5" cx="16" cy="16" r="16"></circle>
        <circle id="path-7" cx="16" cy="16" r="16"></circle>
        <circle id="path-9" cx="16" cy="16" r="16"></circle>
        <circle id="path-11" cx="16" cy="16" r="16"></circle>
    </defs>
    <g id="Designs" stroke="none" stroke-width="1" fill="none" fill-rule="evenodd">
        <g id="Mobile---Earth" transform="translate(-266.000000, -341.000000)">
            <g id="3" transform="translate(266.000000, 341.000000)">
                <g id="Mask" fill="#545BFE" fill-rule="nonzero">
                    <circle id="path-1" cx="16" cy="16" r="16"></circle>
                </g>
                <g id="Combined-Shape-Clipped">
                    <mask id="mask-2" fill="white">
                        <use xlink:href="#path-1"></use>
                    </mask>
                    <g id="path-1"></g>
                    <path d="M9.52888889,24.96 C10.0001719,24.96 10.3822222,24.5779497 10.3822222,24.1066667 C10.3822222,23.6353837 10.0001719,23.2533333 9.52888889,23.2533333 L8.17777778,23.2533333 C7.70649479,23.2533333 7.32444444,22.871283 7.32444444,22.4 C7.32444444,21.928717 7.70649479,21.5466667 8.17777778,21.5466667 L8.03555556,21.5466667 C8.50683854,21.5466667 8.88888889,21.1646163 8.88888889,20.6933333 C8.88888889,20.2220503 8.50683854,19.84 8.03555556,19.84 L7.32444444,19.84 C6.85316146,19.84 6.47111111,19.4579497 6.47111111,18.9866667 C6.47111111,18.5153837 6.85316146,18.1333333 7.32444444,18.1333333 C7.79572743,18.1333333 8.17777778,17.751283 8.17777778,17.28 C8.17777778,16.808717 7.79572743,16.4266667 7.32444444,16.4266667 C6.85316146,16.4266667 6.47111111,16.0446163 6.47111111,15.5733333 C6.47111111,15.1020503 6.85316146,14.72 7.32444444,14.72 L10.8088889,14.72 C11.2801719,14.72 11.6622222,15.1020503 11.6622222,15.5733333 C11.6622222,16.0446163 11.2801719,16.4266667 10.8088889,16.4266667 L10.9511111,16.4266667 L10.9511111,16.4273948 C10.4963258,16.4460444 10.1333519,16.8206337 10.1333519,17.28 C10.1333519,17.7393663 10.4963258,18.1139556 10.9511111,18.1326052 L10.9511111,18.1333333 L14.5777778,18.1333333 C15.0490608,18.1333333 15.4311111,18.5153837 15.4311111,18.9866667 C15.4311111,19.4579497 15.0490608,19.84 14.5777778,19.84 L14.1511111,19.84 L14.151112,19.8407281 C13.6963267,19.8593778 13.3333528,20.233967 13.3333528,20.6933333 C13.3333528,21.1526997 13.6963267,21.5272889 14.151112,21.5459386 L14.1511111,21.5466667 C14.6223941,21.5466667 15.0044444,21.928717 15.0044444,22.4 C15.0044444,22.871283 14.6223941,23.2533333 14.1511111,23.2533333 L12.2311111,23.2533333 L12.2311111,23.2540614 C11.7763258,23.2727111 11.4133519,23.6473003 11.4133519,24.1066667 C11.4133519,24.566033 11.7763258,24.9406222 12.2311111,24.9592719 L12.2311111,24.96 L11.9466667,24.96 C12.4179497,24.96 12.8,25.3420503 12.8,25.8133333 C12.8,26.2846163 12.4179497,26.6666667 11.9466667,26.6666667 L9.88444444,26.6666667 C9.41316146,26.6666667 9.03111111,26.2846163 9.03111111,25.8133333 C9.03111111,25.3420503 9.41316146,24.96 9.88444444,24.96 L9.52888889,24.96 Z M3.48444444,13.0133333 C3.95572743,13.0133333 4.33777778,13.3953837 4.33777778,13.8666667 C4.33777778,14.3379497 3.95572743,14.72 3.48444444,14.72 L0.995555556,14.72 C0.524272569,14.72 0.142222222,14.3379497 0.142222222,13.8666667 C0.142222222,13.3953837 0.524272569,13.0133333 0.995555556,13.0133333 L3.48444444,13.0133333 Z M6.96888889,11.3066667 C7.44017188,11.3066667 7.82222222,11.688717 7.82222222,12.16 C7.82222222,12.631283 7.44017188,13.0133333 6.96888889,13.0133333 C6.4976059,13.0133333 6.11555556,12.631283 6.11555556,12.16 C6.11555556,11.688717 6.4976059,11.3066667 6.96888889,11.3066667 Z M12.5155556,1.06666667 C12.9868385,1.06666667 13.3688889,1.44871701 13.3688889,1.92 C13.3688889,2.39128299 12.9868385,2.77333333 12.5155556,2.77333333 L12.4444444,2.77333333 L12.4444459,2.7740614 C11.9896606,2.79271113 11.6266867,3.16730036 11.6266867,3.62666667 C11.6266867,4.08603297 11.9896606,4.4606222 12.4444459,4.47927193 L12.4444444,4.48 L12.9422222,4.48 C13.4135052,4.48 13.7955556,4.86205035 13.7955556,5.33333333 C13.7955556,5.80461632 13.4135052,6.18666667 12.9422222,6.18666667 L8.03555556,6.18666667 L8.03555662,6.18739474 C7.58077127,6.20604447 7.2177974,6.58063369 7.2177974,7.04 C7.2177974,7.49936633 7.58077127,7.87395556 8.03555662,7.89260523 L8.03555556,7.89333333 L8.39111111,7.89333333 C8.8623941,7.89333333 9.24444444,8.27538368 9.24444444,8.74666667 C9.24444444,9.21794965 8.8623941,9.6 8.39111111,9.6 L-0.0711111111,9.6 C-0.542394098,9.6 -0.924444444,9.21794965 -0.924444444,8.74666667 C-0.924444444,8.27538368 -0.542394098,7.89333333 -0.0711111111,7.89333333 L0.64,7.89333333 C1.11128299,7.89333333 1.49333333,7.51128299 1.49333333,7.04 C1.49333333,6.56871701 1.11128299,6.18666667 0.64,6.18666667 L0.924444444,6.18666667 C0.453161458,6.18666667 0.0711111111,5.80461632 0.0711111111,5.33333333 C0.0711111111,4.86205035 0.453161458,4.48 0.924444444,4.48 L1.35111111,4.48 C1.8223941,4.48 2.20444444,4.09794965 2.20444444,3.62666667 C2.20444444,3.15538368 1.8223941,2.77333333 1.35111111,2.77333333 L-2.06222222,2.77333333 C-2.53350521,2.77333333 -2.91555556,2.39128299 -2.91555556,1.92 C-2.91555556,1.44871701 -2.53350521,1.06666667 -2.06222222,1.06666667 L12.5155556,1.06666667 Z" id="Combined-Shape" fill="#4FCDF9" fill-rule="nonzero" mask="url(#mask-2)"></path>
                </g>
                <g id="Combined-Shape-Clipped">
                    <mask id="mask-4" fill="white">
                        <use xlink:href="#path-3"></use>
                    </mask>
                    <g id="path-1"></g>
                    <path d="M27.7333333,23.2533333 C28.2046163,23.2533333 28.5866667,22.871283 28.5866667,22.4 C28.5866667,21.928717 28.2046163,21.5466667 27.7333333,21.5466667 L27.7333333,21.5466667 C27.2620503,21.5466667 26.88,21.1646163 26.88,20.6933333 C26.88,20.2220503 27.2620503,19.84 27.7333333,19.84 L27.52,19.84 C27.991283,19.84 28.3733333,19.4579497 28.3733333,18.9866667 C28.3733333,18.5153837 27.991283,18.1333333 27.52,18.1333333 L24.32,18.1333333 C23.848717,18.1333333 23.4666667,17.751283 23.4666667,17.28 C23.4666667,16.808717 23.848717,16.4266667 24.32,16.4266667 C24.791283,16.4266667 25.1733333,16.0446163 25.1733333,15.5733333 C25.1733333,15.1020503 24.791283,14.72 24.32,14.72 L21.9022222,14.72 C21.4309392,14.72 21.0488889,14.3379497 21.0488889,13.8666667 C21.0488889,13.3953837 21.4309392,13.0133333 21.9022222,13.0133333 L23.7511111,13.0133333 C24.2223941,13.0133333 24.6044444,12.631283 24.6044444,12.16 C24.6044444,11.688717 24.2223941,11.3066667 23.7511111,11.3066667 L23.7511111,11.3066667 C23.2798281,11.3066667 22.8977778,10.9246163 22.8977778,10.4533333 C22.8977778,9.98205035 23.2798281,9.6 23.7511111,9.6 L27.7333333,9.6 C28.2046163,9.6 28.5866667,9.98205035 28.5866667,10.4533333 C28.5866667,10.9246163 28.2046163,11.3066667 27.7333333,11.3066667 L27.7333321,11.3066667 L27.7332623,11.3073977 C27.2785102,11.3260835 26.9155741,11.7006576 26.9155741,12.16 C26.9155741,12.6193424 27.2785102,12.9939165 27.7332623,13.0126023 L27.7333321,13.0133333 L34.2044444,13.0133333 C34.6757274,13.0133333 35.0577778,13.3953837 35.0577778,13.8666667 C35.0577778,14.3379497 34.6757274,14.72 34.2044444,14.72 L32.7822222,14.72 L32.7822239,14.7207281 C32.3274386,14.7393778 31.9644647,15.113967 31.9644647,15.5733333 C31.9644647,16.0326997 32.3274386,16.4072889 32.7822239,16.4259386 L32.7822222,16.4266667 L33.4933333,16.4266667 C33.9646163,16.4266667 34.3466667,16.808717 34.3466667,17.28 C34.3466667,17.751283 33.9646163,18.1333333 33.4933333,18.1333333 L32.4266655,18.1333333 L32.4265956,18.1340644 C31.9718436,18.1527502 31.6089074,18.5273243 31.6089074,18.9866667 C31.6089074,19.446009 31.9718436,19.8205832 32.4265956,19.839269 L32.4266655,19.84 L32.2844444,19.84 C32.7557274,19.84 33.1377778,20.2220503 33.1377778,20.6933333 C33.1377778,21.1646163 32.7557274,21.5466667 32.2844444,21.5466667 L30.8622222,21.5466667 L30.8622234,21.5473948 C30.4074382,21.5660444 30.0444643,21.9406337 30.0444643,22.4 C30.0444643,22.8593663 30.4074382,23.2339556 30.8622234,23.2526052 L30.8622222,23.2533333 L30.5777778,23.2533333 C31.0490608,23.2533333 31.4311111,23.6353837 31.4311111,24.1066667 C31.4311111,24.5779497 31.0490608,24.96 30.5777778,24.96 L28.0177778,24.96 C27.5464948,24.96 27.1644444,24.5779497 27.1644444,24.1066667 C27.1644444,23.6353837 27.5464948,23.2533333 28.0177778,23.2533333 L27.7333333,23.2533333 Z M34.1333333,21.5466667 C34.6046163,21.5466667 34.9866667,21.928717 34.9866667,22.4 C34.9866667,22.871283 34.6046163,23.2533333 34.1333333,23.2533333 C33.6620503,23.2533333 33.28,22.871283 33.28,22.4 C33.28,21.928717 33.6620503,21.5466667 34.1333333,21.5466667 Z M32.8533333,9.6 C33.3246163,9.6 33.7066667,9.98205035 33.7066667,10.4533333 C33.7066667,10.9246163 33.3246163,11.3066667 32.8533333,11.3066667 L31.8577778,11.3066667 C31.3864948,11.3066667 31.0044444,10.9246163 31.0044444,10.4533333 C31.0044444,9.98205035 31.3864948,9.6 31.8577778,9.6 L32.8533333,9.6 Z M46.9333333,4.48 C47.4046163,4.48 47.7866667,4.86205035 47.7866667,5.33333333 C47.7866667,5.80461632 47.4046163,6.18666667 46.9333333,6.18666667 L46.4355556,6.18666667 L46.4355568,6.18739474 C45.9807714,6.20604447 45.6177975,6.58063369 45.6177975,7.04 C45.6177975,7.49936633 45.9807714,7.87395556 46.4355568,7.89260523 L46.4355556,7.89333333 L47.5733333,7.89333333 C48.0446163,7.89333333 48.4266667,8.27538368 48.4266667,8.74666667 C48.4266667,9.21794965 48.0446163,9.6 47.5733333,9.6 L35.2,9.6 C34.728717,9.6 34.3466667,9.21794965 34.3466667,8.74666667 C34.3466667,8.27538368 34.728717,7.89333333 35.2,7.89333333 L34.8444444,7.89333333 C35.3157274,7.89333333 35.6977778,7.51128299 35.6977778,7.04 C35.6977778,6.56871701 35.3157274,6.18666667 34.8444444,6.18666667 L31.9288889,6.18666667 C31.4576059,6.18666667 31.0755556,5.80461632 31.0755556,5.33333333 C31.0755556,4.86205035 31.4576059,4.48 31.9288889,4.48 L46.9333333,4.48 Z M25.5288889,6.18666667 C26.0001719,6.18666667 26.3822222,6.56871701 26.3822222,7.04 C26.3822222,7.51128299 26.0001719,7.89333333 25.5288889,7.89333333 L23.8222222,7.89333333 C23.3509392,7.89333333 22.9688889,7.51128299 22.9688889,7.04 C22.9688889,6.56871701 23.3509392,6.18666667 23.8222222,6.18666667 L25.5288889,6.18666667 Z M28.2311111,6.18666667 C28.7023941,6.18666667 29.0844444,6.56871701 29.0844444,7.04 C29.0844444,7.51128299 28.7023941,7.89333333 28.2311111,7.89333333 L28.0177778,7.89333333 C27.5464948,7.89333333 27.1644444,7.51128299 27.1644444,7.04 C27.1644444,6.56871701 27.5464948,6.18666667 28.0177778,6.18666667 L28.2311111,6.18666667 Z M29.1555556,2.77333333 C29.6268385,2.77333333 30.0088889,3.15538368 30.0088889,3.62666667 C30.0088889,4.09794965 29.6268385,4.48 29.1555556,4.48 L27.4488889,4.48 C26.9776059,4.48 26.5955556,4.09794965 26.5955556,3.62666667 C26.5955556,3.15538368 26.9776059,2.77333333 27.4488889,2.77333333 L29.1555556,2.77333333 Z" id="Combined-Shape" fill="#4FCDF9" fill-rule="nonzero" mask="url(#mask-4)"></path>
                </g>
                <g id="Combined-Shape-Clipped">
                    <mask id="mask-6" fill="white">
                        <use xlink:href="#path-5"></use>
                    </mask>
                    <g id="path-1"></g>
                    <path d="M29.3688889,7.89333333 C29.8401719,7.89333333 30.2222222,8.27538368 30.2222222,8.74666667 C30.2222222,9.21794965 29.8401719,9.6 29.3688889,9.6 L24.96,9.6 C24.488717,9.6 24.1066667,9.21794965 24.1066667,8.74666667 C24.1066667,8.27538368 24.488717,7.89333333 24.96,7.89333333 L29.3688889,7.89333333 Z M21.8311111,3.62666667 C21.8311111,3.15538368 21.4490608,2.77333333 20.9777778,2.77333333 L12.4444444,2.77333333 C11.9731615,2.77333333 11.5911111,2.39128299 11.5911111,1.92 C11.5911111,1.44871701 11.9731615,1.06666667 12.4444444,1.06666667 L15.9288889,1.06666667 C16.4001719,1.06666667 16.7822222,0.68461632 16.7822222,0.213333333 C16.7822222,-0.257949653 16.4001719,-0.64 15.9288889,-0.64 L14.7911111,-0.64 C14.3198281,-0.64 13.9377778,-1.02205035 13.9377778,-1.49333333 C13.9377778,-1.96461632 14.3198281,-2.34666667 14.7911111,-2.34666667 L19.2,-2.34666667 C19.671283,-2.34666667 20.0533333,-1.96461632 20.0533333,-1.49333333 C20.0533333,-1.02205035 19.671283,-0.64 19.2,-0.64 L19.3422222,-0.64 L19.3422492,-0.639273797 C18.8874426,-0.620647232 18.5244444,-0.246048326 18.5244444,0.213333333 C18.5244444,0.672714993 18.8874426,1.0473139 19.3422492,1.06594047 L19.3422222,1.06666667 L30.72,1.06666667 C31.191283,1.06666667 31.5733333,1.44871701 31.5733333,1.92 C31.5733333,2.39128299 31.191283,2.77333333 30.72,2.77333333 L25.8844431,2.77333333 L25.8843734,2.77406432 C25.4296213,2.79275016 25.0666852,3.16732429 25.0666852,3.62666667 C25.0666852,4.08600905 25.4296213,4.46058318 25.8843734,4.47926901 L25.8844431,4.48 L26.0977778,4.48 C26.5690608,4.48 26.9511111,4.86205035 26.9511111,5.33333333 C26.9511111,5.80461632 26.5690608,6.18666667 26.0977778,6.18666667 L20.6933333,6.18666667 C20.2220503,6.18666667 19.84,5.80461632 19.84,5.33333333 C19.84,4.86205035 20.2220503,4.48 20.6933333,4.48 L20.9777778,4.48 C21.4490608,4.48 21.8311111,4.09794965 21.8311111,3.62666667 Z M30.9333333,4.48 C31.4046163,4.48 31.7866667,4.86205035 31.7866667,5.33333333 C31.7866667,5.80461632 31.4046163,6.18666667 30.9333333,6.18666667 L29.5111111,6.18666667 C29.0398281,6.18666667 28.6577778,5.80461632 28.6577778,5.33333333 C28.6577778,4.86205035 29.0398281,4.48 29.5111111,4.48 L30.9333333,4.48 Z M17.28,4.48 C17.751283,4.48 18.1333333,4.86205035 18.1333333,5.33333333 C18.1333333,5.80461632 17.751283,6.18666667 17.28,6.18666667 L15.8577778,6.18666667 C15.3864948,6.18666667 15.0044444,5.80461632 15.0044444,5.33333333 C15.0044444,4.86205035 15.3864948,4.48 15.8577778,4.48 L17.28,4.48 Z M33.7066667,-2.34666667 C34.1779497,-2.34666667 34.56,-1.96461632 34.56,-1.49333333 C34.56,-1.02205035 34.1779497,-0.64 33.7066667,-0.64 L22.6133333,-0.64 C22.1420503,-0.64 21.76,-1.02205035 21.76,-1.49333333 C21.76,-1.96461632 22.1420503,-2.34666667 22.6133333,-2.34666667 L33.7066667,-2.34666667 Z" id="Combined-Shape" fill="#FFFFFF" fill-rule="nonzero" mask="url(#mask-6)"></path>
                </g>
                <g id="Combined-Shape-Clipped">
                    <mask id="mask-8" fill="white">
                        <use xlink:href="#path-7"></use>
                    </mask>
                    <g id="path-1"></g>
                    <path d="M6.89777778,25.8133333 C6.89777778,25.3420503 6.51572743,24.96 6.04444444,24.96 L1.20888889,24.96 C0.737605902,24.96 0.355555556,24.5779497 0.355555556,24.1066667 C0.355555556,23.6353837 0.737605902,23.2533333 1.20888889,23.2533333 L8.39111111,23.2533333 C8.8623941,23.2533333 9.24444444,22.871283 9.24444444,22.4 C9.24444444,21.928717 8.8623941,21.5466667 8.39111111,21.5466667 L6.75555556,21.5466667 C6.28427257,21.5466667 5.90222222,21.1646163 5.90222222,20.6933333 C5.90222222,20.2220503 6.28427257,19.84 6.75555556,19.84 L15.1466667,19.84 C15.6179497,19.84 16,20.2220503 16,20.6933333 C16,21.1646163 15.6179497,21.5466667 15.1466667,21.5466667 L11.8044444,21.5466667 L11.8044715,21.5473929 C11.3496648,21.5660194 10.9866667,21.9406183 10.9866667,22.4 C10.9866667,22.8593817 11.3496648,23.2339806 11.8044715,23.2526071 L11.8044444,23.2533333 L12.8,23.2533333 C13.271283,23.2533333 13.6533333,23.6353837 13.6533333,24.1066667 C13.6533333,24.5779497 13.271283,24.96 12.8,24.96 L10.9511098,24.96 L10.9510401,24.960731 C10.496288,24.9794168 10.1333519,25.353991 10.1333519,25.8133333 C10.1333519,26.2726757 10.496288,26.6472498 10.9510401,26.6659356 L10.9511098,26.6666667 L11.1644444,26.6666667 C11.6357274,26.6666667 12.0177778,27.048717 12.0177778,27.52 C12.0177778,27.991283 11.6357274,28.3733333 11.1644444,28.3733333 L5.76,28.3733333 C5.28871701,28.3733333 4.90666667,27.991283 4.90666667,27.52 C4.90666667,27.048717 5.28871701,26.6666667 5.76,26.6666667 L6.04444444,26.6666667 C6.51572743,26.6666667 6.89777778,26.2846163 6.89777778,25.8133333 Z M17.6355556,23.2533333 C18.1068385,23.2533333 18.4888889,23.6353837 18.4888889,24.1066667 C18.4888889,24.5779497 18.1068385,24.96 17.6355556,24.96 L16.2133333,24.96 C15.7420503,24.96 15.36,24.5779497 15.36,24.1066667 C15.36,23.6353837 15.7420503,23.2533333 16.2133333,23.2533333 L17.6355556,23.2533333 Z" id="Combined-Shape" fill="#FFFFFF" fill-rule="nonzero" mask="url(#mask-8)"></path>
                </g>
                <g id="Combined-Shape-Copy-Clipped">
                    <mask id="mask-10" fill="white">
                        <use xlink:href="#path-9"></use>
                    </mask>
                    <g id="path-1"></g>
                    <path d="M24.8177778,32.64 C24.8177778,32.168717 24.4357274,31.7866667 23.9644444,31.7866667 L19.1288889,31.7866667 C18.6576059,31.7866667 18.2755556,31.4046163 18.2755556,30.9333333 C18.2755556,30.4620503 18.6576059,30.08 19.1288889,30.08 L26.3111111,30.08 C26.7823941,30.08 27.1644444,29.6979497 27.1644444,29.2266667 C27.1644444,28.7553837 26.7823941,28.3733333 26.3111111,28.3733333 L24.6755556,28.3733333 C24.2042726,28.3733333 23.8222222,27.991283 23.8222222,27.52 C23.8222222,27.048717 24.2042726,26.6666667 24.6755556,26.6666667 L33.0666667,26.6666667 C33.5379497,26.6666667 33.92,27.048717 33.92,27.52 C33.92,27.991283 33.5379497,28.3733333 33.0666667,28.3733333 L29.7244444,28.3733333 L29.7244715,28.3740595 C29.2696648,28.3926861 28.9066667,28.767285 28.9066667,29.2266667 C28.9066667,29.6860484 29.2696648,30.0606473 29.7244715,30.0792738 L29.7244444,30.08 L30.72,30.08 C31.191283,30.08 31.5733333,30.4620503 31.5733333,30.9333333 C31.5733333,31.4046163 31.191283,31.7866667 30.72,31.7866667 L28.8711098,31.7866667 L28.8710401,31.7873977 C28.416288,31.8060835 28.0533519,32.1806576 28.0533519,32.64 C28.0533519,33.0993424 28.416288,33.4739165 28.8710401,33.4926023 L28.8711098,33.4933333 L29.0844444,33.4933333 C29.5557274,33.4933333 29.9377778,33.8753837 29.9377778,34.3466667 C29.9377778,34.8179497 29.5557274,35.2 29.0844444,35.2 L23.68,35.2 C23.208717,35.2 22.8266667,34.8179497 22.8266667,34.3466667 C22.8266667,33.8753837 23.208717,33.4933333 23.68,33.4933333 L23.9644444,33.4933333 C24.4357274,33.4933333 24.8177778,33.111283 24.8177778,32.64 Z M35.5555556,30.08 C36.0268385,30.08 36.4088889,30.4620503 36.4088889,30.9333333 C36.4088889,31.4046163 36.0268385,31.7866667 35.5555556,31.7866667 L34.1333333,31.7866667 C33.6620503,31.7866667 33.28,31.4046163 33.28,30.9333333 C33.28,30.4620503 33.6620503,30.08 34.1333333,30.08 L35.5555556,30.08 Z" id="Combined-Shape-Copy" fill="#FFFFFF" fill-rule="nonzero" mask="url(#mask-10)"></path>
                </g>
                <g id="Rectangle-Clipped">
                    <mask id="mask-12" fill="white">
                        <use xlink:href="#path-11"></use>
                    </mask>
                    <g id="path-1"></g>
                    <rect id="Rectangle" fill="#000000" fill-rule="nonzero" opacity="0.0775756836" mask="url(#mask-12)" x="16.0343864" y="-1.77777778" width="17.8121642" height="35.5555556"></rect>
                </g>
            </g>
        </g>
    </g>
</svg>